<svg width="20" height="20" viewBox="0 0 20 20" fill="none" xmlns="http://www.w3.org/2000/svg">
<path d="M16.8202 0.12018C16.66 -0.0400599 16.3977 -0.0400599 16.2375 0.12018L10.2914 6.06627C10.1311 6.2265 9.86886 6.2265 9.70862 6.06627L3.76265 0.12018C3.60241 -0.0400599 3.34012 -0.0400599 3.17988 0.12018L0.12018 3.17977C-0.0400599 3.34001 -0.0400599 3.60229 0.12018 3.76253L6.06627 9.70862C6.2265 9.86886 6.2265 10.1311 6.06627 10.2914L0.12018 16.2375C-0.0400599 16.3977 -0.0400599 16.66 0.12018 16.8202L3.17977 19.8798C3.34001 20.0401 3.60229 20.0401 3.76253 19.8798L9.70862 13.9337C9.86886 13.7735 10.1311 13.7735 10.2914 13.9337L16.2374 19.8797C16.3976 20.0399 16.6599 20.0399 16.8201 19.8797L19.8797 16.8201C20.0399 16.6599 20.0399 16.3976 19.8797 16.2374L13.9337 10.2914C13.7735 10.1311 13.7735 9.86886 13.9337 9.70862L19.8797 3.76265C20.0399 3.60241 20.0399 3.34012 19.8797 3.17989L16.8202 0.12018Z" fill="#414C63"/>
</svg>
