<svg width="29" height="30" viewBox="0 0 29 30" fill="none" xmlns="http://www.w3.org/2000/svg">
<path fill-rule="evenodd" clip-rule="evenodd" d="M0.090625 6.94344C0.273358 6.14275 0.722563 5.42785 1.36467 4.91581C2.00678 4.40377 2.80373 4.12494 3.625 4.125H25.375C26.1963 4.12494 26.9932 4.40377 27.6353 4.91581C28.2774 5.42785 28.7266 6.14275 28.9094 6.94344L14.5 15.7504L0.090625 6.94344ZM0 9.01331V21.8893L10.5179 15.4404L0 9.01331ZM12.2543 16.5044L0.346188 23.8033C0.640404 24.4237 1.10477 24.9478 1.68523 25.3145C2.26569 25.6813 2.93838 25.8757 3.625 25.875H25.375C26.0615 25.8752 26.7339 25.6804 27.3141 25.3133C27.8942 24.9462 28.3582 24.422 28.652 23.8015L16.7439 16.5026L14.5 17.8746L12.2543 16.5026V16.5044ZM18.4821 15.4423L29 21.8893V9.01331L18.4821 15.4404V15.4423Z" fill="white"/>
</svg>
