<svg width="25" height="26" viewBox="0 0 25 26" fill="none" xmlns="http://www.w3.org/2000/svg">
<g clip-path="url(#clip0)">
<path d="M22.9561 8.22242C23.2266 7.41088 23.362 6.56961 23.362 5.69829C23.362 4.53639 23.1063 3.44458 22.5956 2.42298C21.5241 2.42298 20.5776 2.61847 19.7561 3.00898C18.935 3.39959 17.9985 4.00554 16.9472 4.82681C15.6252 4.50634 14.2225 4.34611 12.7405 4.34611C11.1178 4.34611 9.57025 4.5215 8.09799 4.87202C7.02639 4.03059 6.07987 3.41227 5.25854 3.01656C4.43721 2.62084 3.48575 2.42303 2.40394 2.42303C1.89314 3.44464 1.63776 4.5365 1.63776 5.69834C1.63776 6.57982 1.7729 7.4312 2.04338 8.25237C0.681037 9.84503 0 11.8281 0 14.2019C0 16.2855 0.310366 17.943 0.931467 19.1751C1.26209 19.8259 1.69265 20.4018 2.22355 20.9028C2.75425 21.4035 3.36025 21.8094 4.04139 22.12C4.72264 22.4302 5.40857 22.6883 6.09976 22.8935C6.7909 23.0987 7.55456 23.2491 8.39094 23.3439C9.22726 23.4394 9.96592 23.5019 10.6069 23.5322C11.2479 23.5619 11.9589 23.5771 12.7404 23.5771C13.6617 23.5771 14.4978 23.5543 15.2494 23.5096C16.0006 23.4646 16.8593 23.3542 17.826 23.1793C18.7925 23.0039 19.6439 22.7659 20.3802 22.4655C21.1164 22.1651 21.8227 21.7343 22.4988 21.1736C23.1748 20.6124 23.703 19.9465 24.0838 19.1752C24.6944 17.9331 25.0001 16.2753 25.0001 14.202C24.9997 11.8181 24.3186 9.82498 22.9561 8.22242ZM21.1539 19.1522C20.8333 19.8085 20.4276 20.3239 19.9369 20.6998C19.446 21.0755 18.8351 21.3759 18.104 21.6015C17.3726 21.8268 16.6718 21.9745 16.0006 22.0443C15.3293 22.1145 14.5834 22.1495 13.7618 22.1495H11.2377C10.4165 22.1495 9.67013 22.1145 8.99915 22.0443C8.32811 21.9745 7.62702 21.8268 6.89578 21.6015C6.1648 21.3759 5.55391 21.0755 5.063 20.6998C4.57209 20.3238 4.16647 19.8085 3.84595 19.1522C3.52548 18.496 3.36519 17.7274 3.36519 16.8461C3.36519 15.6438 3.71076 14.6221 4.40196 13.7811C5.0931 12.9397 6.02951 12.5191 7.2113 12.5191C7.64217 12.5191 8.61874 12.6242 10.1412 12.8346C10.8522 12.9447 11.6386 12.9998 12.4998 12.9998C13.3614 12.9998 14.1476 12.9449 14.8586 12.8346C16.4013 12.6242 17.3776 12.5191 17.7885 12.5191C18.9702 12.5191 19.9066 12.9399 20.5978 13.7811C21.289 14.6224 21.6343 15.6438 21.6343 16.8461C21.6343 17.7276 21.474 18.4966 21.1539 19.1522Z" fill="white"/>
<path d="M8.78134 14.4723C8.47581 14.1316 8.11287 13.9612 7.69211 13.9612C7.27123 13.9612 6.90825 14.1318 6.60277 14.4723C6.29746 14.8126 6.08197 15.1934 5.95684 15.6136C5.83144 16.0347 5.76892 16.4452 5.76892 16.8461C5.76892 17.2466 5.83159 17.6572 5.95684 18.0782C6.08181 18.4987 6.2972 18.8792 6.60277 19.2195C6.9084 19.5603 7.27123 19.7306 7.69211 19.7306C8.11287 19.7306 8.47597 19.5599 8.78134 19.2195C9.08676 18.8792 9.30214 18.4987 9.42727 18.0782C9.55252 17.6572 9.61519 17.2466 9.61519 16.8461C9.61519 16.4456 9.55267 16.0347 9.42727 15.6136C9.30209 15.1935 9.08691 14.813 8.78134 14.4723Z" fill="white"/>
<path d="M18.3968 14.4723C18.0914 14.1316 17.7284 13.9612 17.3077 13.9612C16.8872 13.9612 16.5239 14.1318 16.2184 14.4723C15.9129 14.8126 15.6976 15.1934 15.5726 15.6136C15.4471 16.0347 15.3845 16.4452 15.3845 16.8461C15.3845 17.2466 15.4471 17.6572 15.5726 18.0782C15.6976 18.4987 15.913 18.8792 16.2184 19.2195C16.524 19.5603 16.8872 19.7306 17.3077 19.7306C17.7284 19.7306 18.0915 19.5599 18.3968 19.2195C18.7021 18.8792 18.9176 18.4987 19.0429 18.0782C19.1681 17.6572 19.2307 17.2466 19.2307 16.8461C19.2307 16.4456 19.1681 16.0347 19.0429 15.6136C18.9176 15.1935 18.7021 14.813 18.3968 14.4723Z" fill="white"/>
</g>
<defs>
<clipPath id="clip0">
<rect width="25" height="25" fill="white"/>
</clipPath>
</defs>
</svg>
