<svg width="25" height="26" viewBox="0 0 25 26" fill="none" xmlns="http://www.w3.org/2000/svg">
<g clip-path="url(#clip0)">
<path d="M3.20884 0.5H21.7912C23.5559 0.5 24.9997 1.80654 24.9997 3.70858V22.2914C24.9997 24.1935 23.5559 25.5 21.7912 25.5H3.20884C1.44361 25.5 0 24.1935 0 22.2914V3.70858C0 1.80654 1.44361 0.5 3.20884 0.5ZM18.2114 3.27761C17.5923 3.27761 17.0864 3.78379 17.0864 4.40318V7.0971C17.0864 7.71623 17.5923 8.22268 18.2114 8.22268H21.037C21.6561 8.22268 22.1626 7.71623 22.1626 7.0971V4.40318C22.1626 3.78379 21.6561 3.27761 21.037 3.27761H18.2114ZM22.1744 11.0724H19.9741C20.1823 11.7521 20.2949 12.4721 20.2949 13.217C20.2949 17.3754 16.8153 20.7462 12.5237 20.7462C8.23246 20.7462 4.75332 17.3754 4.75332 13.217C4.75332 12.4716 4.86575 11.7519 5.07418 11.0724H2.77812V21.6328C2.77812 22.1792 3.22527 22.6266 3.77201 22.6266H21.181C21.7278 22.6266 22.1749 22.1795 22.1749 21.6328V11.0724H22.1744ZM12.5235 8.08073C9.75076 8.08073 7.5027 10.2587 7.5027 12.9457C7.5027 15.6327 9.75076 17.8107 12.5235 17.8107C15.2965 17.8107 17.5448 15.6327 17.5448 12.9457C17.5448 10.2587 15.2967 8.08073 12.5235 8.08073Z" fill="white"/>
</g>
<defs>
<clipPath id="clip0">
<rect width="25" height="25" fill="white"/>
</clipPath>
</defs>
</svg>
