<svg width="77" height="58" viewBox="0 0 77 58" fill="none" xmlns="http://www.w3.org/2000/svg">
<path d="M0.414879 43.125L0.510719 43.769L0.610382 43.746C1.29153 46.9314 2.86067 49.8588 5.13624 52.1895C7.4118 54.5202 10.3008 56.159 13.4689 56.9163C16.6371 57.6735 19.9548 57.5182 23.0384 56.4684C26.122 55.4186 28.8453 53.5172 30.8933 50.9842C32.9412 48.4511 34.2301 45.3899 34.6108 42.1549C34.9915 38.9198 34.4484 35.6431 33.0445 32.7038C31.6405 29.7646 29.433 27.2829 26.6773 25.5459C23.9217 23.809 20.7306 22.8878 17.4732 22.8889C16.6184 22.8889 15.798 23.0192 14.9815 23.138C15.246 22.2487 15.5182 21.344 15.9552 20.5314C16.3922 19.3507 17.0745 18.3272 17.753 17.296C18.3204 16.1805 19.3209 15.4254 20.0569 14.4709C20.8274 13.5432 21.8777 12.926 22.7095 12.1555C23.526 11.3505 24.5955 10.948 25.4465 10.3807C26.3359 9.87085 27.1102 9.30735 27.9382 9.03902L30.0044 8.18802L31.8214 7.43285L29.966 1.52588e-05L27.6775 0.552021C26.9454 0.736019 26.0522 0.950684 25.0364 1.20752C23.9975 1.39919 22.8897 1.92435 21.6554 2.40352C20.4402 2.95169 19.0257 3.31585 17.7147 4.19368C16.396 5.02935 14.8742 5.72702 13.5325 6.84636C12.233 8.00019 10.6652 9.00069 9.50755 10.465C8.24255 11.8374 6.99288 13.2787 6.02305 14.9193C4.89988 16.4834 4.13705 18.2007 3.33205 19.8989C2.60371 21.597 2.01721 23.3335 1.53805 25.0202C0.629547 28.4012 0.223213 31.6135 0.0660477 34.362C-0.0642853 37.1144 0.0123749 39.4029 0.173378 41.0589C0.227249 41.7504 0.307808 42.4397 0.414879 43.125ZM42.5815 43.125L42.6774 43.769L42.777 43.746C43.4582 46.9314 45.0273 49.8588 47.3029 52.1895C49.5785 54.5202 52.4675 56.159 55.6356 56.9163C58.8037 57.6735 62.1215 57.5182 65.2051 56.4684C68.2887 55.4186 71.012 53.5172 73.0599 50.9842C75.1079 48.4511 76.3968 45.3899 76.7775 42.1549C77.1582 38.9198 76.6151 35.6431 75.2111 32.7038C73.8071 29.7646 71.5996 27.2829 68.844 25.5459C66.0884 23.809 62.8973 22.8878 59.6399 22.8889C58.785 22.8889 57.9647 23.0192 57.1482 23.138C57.4127 22.2487 57.6849 21.344 58.1219 20.5314C58.5589 19.3507 59.2412 18.3272 59.9197 17.296C60.487 16.1805 61.4875 15.4254 62.2235 14.4709C62.994 13.5432 64.0444 12.926 64.8762 12.1555C65.6927 11.3505 66.7622 10.948 67.6132 10.3807C68.5025 9.87085 69.2769 9.30735 70.1049 9.03902L72.171 8.18802C73.3249 7.71652 73.9842 7.44052 73.9842 7.44052L72.1289 0.00768661L69.8404 0.559685C69.1082 0.743683 68.215 0.958355 67.1992 1.21519C66.1604 1.40686 65.0525 1.93202 63.8182 2.41119C62.603 2.95936 61.1885 3.32352 59.8775 4.20135C58.5589 5.03702 57.037 5.73468 55.6954 6.85402C54.3959 8.00785 52.828 9.00835 51.6704 10.4727C50.4054 11.845 49.1557 13.2864 48.1859 14.927C47.0627 16.491 46.2999 18.2084 45.4949 19.9065C44.7665 21.6047 44.18 23.3412 43.7009 25.0279C42.7924 28.4089 42.386 31.6212 42.2289 34.3697C42.0985 37.122 42.1752 39.4105 42.3362 41.0665C42.3935 41.7554 42.4753 42.442 42.5815 43.125Z" fill="#303133"/>
</svg>
