<svg xmlns="http://www.w3.org/2000/svg" xmlns:xlink="http://www.w3.org/1999/xlink"><defs><symbol viewBox="0 0 306 306" id="arrow-down"><path d="M94.35 0l-35.7 35.7L175.95 153 58.65 270.3l35.7 35.7 153-153z" /></symbol><symbol viewBox="0 0 174.239 174.239" id="cross"><path d="M146.537 1.047a3.6 3.6 0 00-5.077 0L89.658 52.849a3.6 3.6 0 01-5.077 0L32.78 1.047a3.6 3.6 0 00-5.077 0L1.047 27.702a3.6 3.6 0 000 5.077l51.802 51.802a3.6 3.6 0 010 5.077L1.047 141.46a3.6 3.6 0 000 5.077l26.655 26.655a3.6 3.6 0 005.077 0l51.802-51.802a3.6 3.6 0 015.077 0l51.801 51.801a3.6 3.6 0 005.077 0l26.655-26.655a3.6 3.6 0 000-5.077L121.39 89.658a3.6 3.6 0 010-5.077l51.801-51.801a3.6 3.6 0 000-5.077L146.537 1.047z" /></symbol><symbol viewBox="0 0 29 30" id="envelope"><path fill-rule="evenodd" clip-rule="evenodd" d="M.09 6.943a3.625 3.625 0 013.535-2.818h21.75a3.625 3.625 0 013.534 2.818L14.5 15.75.09 6.943zM0 9.013V21.89l10.518-6.449L0 9.013zm12.254 7.491l-11.908 7.3a3.625 3.625 0 003.279 2.071h21.75a3.625 3.625 0 003.277-2.073l-11.908-7.3-2.244 1.373-2.246-1.372v.001zm6.228-1.062L29 21.89V9.013L18.482 15.44v.002z" /></symbol><symbol viewBox="0 0 25 26" id="github"><g clip-path="url(#github_clip0)"><path d="M22.956 8.222a7.93 7.93 0 00.406-2.524 7.226 7.226 0 00-.766-3.275c-1.072 0-2.018.195-2.84.586-.821.39-1.758.997-2.809 1.818a17.81 17.81 0 00-4.206-.48c-1.623 0-3.17.174-4.643.525-1.072-.841-2.018-1.46-2.84-1.855-.82-.396-1.772-.594-2.854-.594a7.224 7.224 0 00-.766 3.275c0 .882.135 1.733.405 2.554C.681 9.845 0 11.828 0 14.202c0 2.083.31 3.741.931 4.973a6.25 6.25 0 001.293 1.728c.53.5 1.136.906 1.817 1.217.682.31 1.368.568 2.059.773.69.206 1.455.356 2.29.45.837.096 1.576.159 2.217.19.64.029 1.352.044 2.133.044.922 0 1.758-.023 2.51-.067.75-.045 1.61-.156 2.576-.33.966-.176 1.818-.414 2.554-.715a8.138 8.138 0 002.119-1.291 6.06 6.06 0 001.585-1.999c.61-1.242.916-2.9.916-4.973 0-2.384-.681-4.377-2.044-5.98zm-1.802 10.93c-.32.656-.726 1.172-1.217 1.548-.491.376-1.102.676-1.833.902-.731.225-1.432.372-2.103.442-.672.07-1.418.105-2.24.105h-2.523c-.822 0-1.568-.035-2.239-.105a11.034 11.034 0 01-2.103-.442c-.731-.226-1.342-.526-1.833-.902-.49-.376-.897-.892-1.217-1.548-.32-.656-.48-1.425-.48-2.306 0-1.202.345-2.224 1.036-3.065.691-.841 1.628-1.262 2.81-1.262.43 0 1.407.105 2.93.316.71.11 1.497.165 2.358.165s1.648-.055 2.359-.165c1.542-.21 2.519-.316 2.93-.316 1.181 0 2.118.42 2.809 1.262.691.841 1.036 1.863 1.036 3.065 0 .882-.16 1.65-.48 2.306z" /><path d="M8.781 14.472c-.305-.34-.668-.51-1.089-.51-.42 0-.784.17-1.09.51-.305.34-.52.721-.645 1.142a4.305 4.305 0 00-.188 1.232c0 .4.063.811.188 1.232.125.42.34.801.646 1.142.305.34.668.51 1.09.51.42 0 .783-.17 1.088-.51.306-.34.521-.721.646-1.142a4.31 4.31 0 00.188-1.232c0-.4-.062-.811-.188-1.232a2.96 2.96 0 00-.646-1.142zM18.397 14.472c-.306-.34-.669-.51-1.09-.51-.42 0-.783.17-1.089.51-.305.34-.52.721-.645 1.142a4.302 4.302 0 00-.189 1.232c0 .4.063.811.189 1.232.125.42.34.801.645 1.142.306.34.67.51 1.09.51.42 0 .784-.17 1.089-.51.305-.34.52-.721.646-1.142a4.31 4.31 0 00.188-1.232c0-.4-.063-.811-.188-1.232-.125-.42-.34-.801-.646-1.142z" /></g><defs></defs></symbol><clipPath id="github_clip0"><path d="M0 0h25v25H0z" /></clipPath><symbol viewBox="0 0 25 26" id="insta"><g clip-path="url(#insta_clip0)"><path d="M3.209.5H21.79C23.556.5 25 1.807 25 3.709V22.29c0 1.902-1.444 3.209-3.209 3.209H3.21C1.444 25.5 0 24.194 0 22.291V3.71C0 1.807 1.444.5 3.209.5zM18.21 3.278c-.619 0-1.125.506-1.125 1.125v2.694c0 .62.506 1.126 1.125 1.126h2.826c.62 0 1.126-.507 1.126-1.126V4.403c0-.62-.507-1.125-1.126-1.125h-2.826zm3.963 7.794h-2.2c.208.68.32 1.4.32 2.145 0 4.158-3.479 7.53-7.77 7.53-4.292 0-7.77-3.372-7.77-7.53a7.3 7.3 0 01.32-2.145H2.778v10.56c0 .547.447.995.994.995h17.409a.997.997 0 00.994-.994v-10.56zm-9.65-2.991c-2.773 0-5.021 2.178-5.021 4.865 0 2.687 2.248 4.865 5.02 4.865 2.774 0 5.022-2.178 5.022-4.865 0-2.687-2.248-4.865-5.022-4.865z" /></g><defs></defs></symbol><clipPath id="insta_clip0"><path d="M0 0h25v25H0z" /></clipPath><symbol viewBox="0 0 512 512" id="key"><path d="M334.974 0c-95.419 0-173.049 77.63-173.049 173.049 0 21.213 3.769 41.827 11.211 61.403L7.672 399.928a12.613 12.613 0 00-3.694 8.917v90.544c0 6.965 5.646 12.611 12.611 12.611h74.616a12.61 12.61 0 008.91-3.686l25.145-25.107a12.61 12.61 0 003.701-8.925v-30.876h30.837c6.965 0 12.611-5.646 12.611-12.611v-12.36h12.361c6.964 0 12.611-5.646 12.611-12.611v-27.136h27.136c3.344 0 6.551-1.329 8.917-3.694l40.121-40.121c19.579 7.449 40.196 11.223 61.417 11.223 95.419 0 173.049-77.63 173.049-173.049C508.022 77.63 430.393 0 334.974 0zm0 320.874c-20.642 0-40.606-4.169-59.339-12.393-4.844-2.126-10.299-.956-13.871 2.525-.039.037-.077.067-.115.106l-42.354 42.354h-34.523c-6.965 0-12.611 5.646-12.611 12.611v27.136H159.8c-6.964 0-12.611 5.646-12.611 12.611v12.36h-30.838c-6.964 0-12.611 5.646-12.611 12.611v38.257l-17.753 17.725H29.202v-17.821l154.141-154.14c4.433-4.433 4.433-11.619 0-16.051s-11.617-4.434-16.053 0L29.202 436.854V414.07l167.696-167.708c.038-.038.067-.073.102-.11 3.482-3.569 4.656-9.024 2.53-13.872-8.216-18.732-12.38-38.695-12.38-59.33 0-81.512 66.315-147.827 147.827-147.827S482.802 91.537 482.802 173.05c-.002 81.51-66.318 147.824-147.828 147.824z" /><path d="M387.638 73.144c-26.047 0-47.237 21.19-47.237 47.237s21.19 47.237 47.237 47.237 47.237-21.19 47.237-47.237-21.189-47.237-47.237-47.237zm0 69.252c-12.139 0-22.015-9.876-22.015-22.015s9.876-22.015 22.015-22.015 22.015 9.876 22.015 22.015-9.876 22.015-22.015 22.015z" /></symbol><symbol viewBox="0 0 512.092 512.092" id="link"><path d="M312.453 199.601a116.167 116.167 0 00-20.053-16.128 119.472 119.472 0 00-64.427-18.859 118.952 118.952 0 00-84.48 34.987L34.949 308.23a119.466 119.466 0 00-34.91 84.318c-.042 65.98 53.41 119.501 119.39 119.543a118.7 118.7 0 0084.395-34.816l89.6-89.6a8.534 8.534 0 00-6.059-14.592h-3.413a143.626 143.626 0 01-54.613-10.581 8.533 8.533 0 00-9.301 1.877l-64.427 64.512c-20.006 20.006-52.442 20.006-72.448 0-20.006-20.006-20.006-52.442 0-72.448l108.971-108.885c19.99-19.965 52.373-19.965 72.363 0 13.472 12.679 34.486 12.679 47.957 0a34.134 34.134 0 009.899-21.675 34.137 34.137 0 00-9.9-26.282z" /><path d="M477.061 34.993c-46.657-46.657-122.303-46.657-168.96 0l-89.515 89.429a8.533 8.533 0 00-1.792 9.387 8.532 8.532 0 008.021 5.205h3.157a143.357 143.357 0 0154.528 10.667 8.533 8.533 0 009.301-1.877l64.256-64.171c20.006-20.006 52.442-20.006 72.448 0 20.006 20.006 20.006 52.442 0 72.448l-80.043 79.957-.683.768-27.989 27.819c-19.99 19.965-52.373 19.965-72.363 0-13.472-12.679-34.486-12.679-47.957 0a34.139 34.139 0 00-9.899 21.845 34.137 34.137 0 009.899 26.283 118.447 118.447 0 0034.133 23.893c1.792.853 3.584 1.536 5.376 2.304 1.792.768 3.669 1.365 5.461 2.048a67.799 67.799 0 005.461 1.792l5.035 1.365c3.413.853 6.827 1.536 10.325 2.133 4.214.626 8.458 1.025 12.715 1.195H284.461l5.12-.597c1.877-.085 3.84-.512 6.059-.512h2.901l5.888-.853 2.731-.512 4.949-1.024h.939a119.456 119.456 0 0055.381-31.403l108.629-108.629c46.66-46.657 46.66-122.303.003-168.96z" /></symbol><symbol viewBox="0 0 612 612" id="message"><path d="M401.625 325.125h-191.25c-10.557 0-19.125 8.568-19.125 19.125s8.568 19.125 19.125 19.125h191.25c10.557 0 19.125-8.568 19.125-19.125s-8.568-19.125-19.125-19.125zm38.25-114.75h-267.75c-10.557 0-19.125 8.568-19.125 19.125s8.568 19.125 19.125 19.125h267.75c10.557 0 19.125-8.568 19.125-19.125s-8.568-19.125-19.125-19.125zM306 0C137.012 0 0 119.875 0 267.75c0 84.514 44.848 159.751 114.75 208.826V612l134.047-81.339c18.552 3.061 37.638 4.839 57.203 4.839 169.008 0 306-119.875 306-267.75S475.008 0 306 0zm0 497.25c-22.338 0-43.911-2.601-64.643-7.019l-90.041 54.123 1.205-88.701C83.5 414.133 38.25 345.513 38.25 267.75c0-126.741 119.875-229.5 267.75-229.5s267.75 102.759 267.75 229.5S453.875 497.25 306 497.25z" /></symbol><symbol viewBox="0 0 11 18" id="next"><path fill-rule="evenodd" clip-rule="evenodd" d="M7.293 9.03L0 1.755 1.414.344l8.707 8.686-8.707 8.686L0 16.306 7.293 9.03z" /></symbol><symbol viewBox="0 0 528.899 528.899" id="pencil"><path d="M328.883 89.125l107.59 107.589-272.34 272.34L56.604 361.465l272.279-272.34zm189.23-25.948l-47.981-47.981c-18.543-18.543-48.653-18.543-67.259 0l-45.961 45.961 107.59 107.59 53.611-53.611c14.382-14.383 14.382-37.577 0-51.959zM.3 512.69c-1.958 8.812 5.998 16.708 14.811 14.565l119.891-29.069L27.473 390.597.3 512.69z" /></symbol><symbol viewBox="0 0 11 18" id="prev"><path fill-rule="evenodd" clip-rule="evenodd" d="M2.828 8.903l7.293-7.276L8.707.217 0 8.902l8.707 8.686 1.414-1.411-7.293-7.275z" /></symbol><symbol viewBox="0 0 77 58" id="quote"><path d="M.415 43.125l.096.644.1-.023a17.25 17.25 0 1016.862-20.857c-.855 0-1.675.13-2.491.249.264-.89.536-1.794.973-2.607.437-1.18 1.12-2.204 1.798-3.235.567-1.116 1.568-1.87 2.304-2.825.77-.928 1.82-1.545 2.652-2.316.817-.804 1.887-1.207 2.738-1.774.889-.51 1.663-1.074 2.491-1.342l2.066-.851 1.817-.755L29.966 0l-2.289.552c-.732.184-1.625.399-2.64.656-1.04.191-2.147.716-3.382 1.196-1.215.548-2.63.912-3.94 1.79-1.319.835-2.84 1.533-4.182 2.652-1.3 1.154-2.868 2.155-4.025 3.619-1.265 1.372-2.515 2.814-3.485 4.454-1.123 1.564-1.886 3.282-2.69 4.98a42.454 42.454 0 00-1.795 5.121C.63 28.401.223 31.613.066 34.362c-.13 2.752-.054 5.04.107 6.697.054.691.135 1.38.242 2.066zm42.166 0l.096.644.1-.023A17.25 17.25 0 1059.64 22.889c-.855 0-1.675.13-2.492.249.265-.89.537-1.794.974-2.607.437-1.18 1.12-2.204 1.798-3.235.567-1.116 1.567-1.87 2.303-2.825.771-.928 1.821-1.545 2.653-2.316.817-.804 1.886-1.207 2.737-1.774.89-.51 1.664-1.074 2.492-1.342l2.066-.851c1.154-.471 1.813-.747 1.813-.747L72.13.008 69.84.56c-.732.184-1.625.398-2.64.655-1.04.192-2.148.717-3.382 1.196-1.215.548-2.63.913-3.94 1.79-1.32.836-2.841 1.534-4.183 2.653-1.3 1.154-2.867 2.154-4.025 3.619-1.265 1.372-2.514 2.813-3.484 4.454-1.123 1.564-1.886 3.281-2.691 4.98a42.44 42.44 0 00-1.794 5.12c-.909 3.382-1.315 6.594-1.472 9.343-.13 2.752-.054 5.04.107 6.697.058.688.14 1.375.245 2.058z" /></symbol><symbol viewBox="0 0 1000 1000" id="remove"><path d="M585.8 500l385.9-385.9c24.5-24.5 24.5-61.3 0-85.8s-61.3-24.5-85.8 0L500 414.3 114.1 28.4c-24.5-24.5-61.2-24.5-85.8 0-24.5 24.5-24.5 61.3 0 85.8L411.2 500 28.4 885.9c-24.5 24.5-24.5 61.3 0 85.8 9.2 12.3 27.6 18.4 42.9 18.4 15.3 0 30.6-6.1 42.9-18.4L500 585.8l385.9 385.9c12.3 12.3 27.6 18.4 42.9 18.4s30.6-6.1 42.9-18.4c24.5-24.5 24.5-61.3 0-85.8L585.8 500z" /></symbol><symbol viewBox="0 0 14 14" id="scroll"><path fill-rule="evenodd" clip-rule="evenodd" d="M12 0L6.707 5.293 1.414 0 0 1.414l6.707 6.707 6.707-6.707L12 0zm1.414 6.414L12 5l-5.293 5.293L1.414 5 0 6.414l6.707 6.707 6.707-6.707z" /></symbol><symbol viewBox="0 0 23 23" id="stars"><path d="M15.016 1.188l-2.883 8.976 9.89-.422-.187 3.68-9.211-1.102 4.219 8.977-3.89 1.219L10.303 13l-6.046 8.063-2.719-2.836 7.242-6.657L.04 9.016l1.29-3.61 8.694 4.336.961-9.375 4.032.82z" fill-opacity=".5" /></symbol><symbol viewBox="0 0 342.357 342.357" id="tick"><path d="M290.04 33.286L118.861 204.427l-66.541-66.52L0 190.226l118.862 118.845L342.357 85.606z" /></symbol><symbol viewBox="0 0 459 459" id="trash"><path d="M76.5 408c0 28.05 22.95 51 51 51h204c28.05 0 51-22.95 51-51V102h-306v306zM408 25.5h-89.25L293.25 0h-127.5l-25.5 25.5H51v51h357v-51z" /></symbol><symbol viewBox="0 0 482.9 482.9" id="user"><path d="M239.7 260.2h3.2c29.3-.5 53-10.8 70.5-30.5 38.5-43.4 32.1-117.8 31.4-124.9-2.5-53.3-27.7-78.8-48.5-90.7C280.8 5.2 262.7.4 242.5 0H240.8c-11.1 0-32.9 1.8-53.8 13.7-21 11.9-46.6 37.4-49.1 91.1-.7 7.1-7.1 81.5 31.4 124.9 17.4 19.7 41.1 30 70.4 30.5zm-75.1-152.9c0-.3.1-.6.1-.8 3.3-71.7 54.2-79.4 76-79.4H241.9c27 .6 72.9 11.6 76 79.4 0 .3 0 .6.1.8.1.7 7.1 68.7-24.7 104.5-12.6 14.2-29.4 21.2-51.5 21.4h-1c-22-.2-38.9-7.2-51.4-21.4-31.7-35.6-24.9-103.9-24.8-104.5z" /><path d="M446.8 383.6v-.3c0-.8-.1-1.6-.1-2.5-.6-19.8-1.9-66.1-45.3-80.9-.3-.1-.7-.2-1-.3-45.1-11.5-82.6-37.5-83-37.8-6.1-4.3-14.5-2.8-18.8 3.3-4.3 6.1-2.8 14.5 3.3 18.8 1.7 1.2 41.5 28.9 91.3 41.7 23.3 8.3 25.9 33.2 26.6 56 0 .9 0 1.7.1 2.5.1 9-.5 22.9-2.1 30.9-16.2 9.2-79.7 41-176.3 41-96.2 0-160.1-31.9-176.4-41.1-1.6-8-2.3-21.9-2.1-30.9 0-.8.1-1.6.1-2.5.7-22.8 3.3-47.7 26.6-56 49.8-12.8 89.6-40.6 91.3-41.7 6.1-4.3 7.6-12.7 3.3-18.8-4.3-6.1-12.7-7.6-18.8-3.3-.4.3-37.7 26.3-83 37.8-.4.1-.7.2-1 .3-43.4 14.9-44.7 61.2-45.3 80.9 0 .9 0 1.7-.1 2.5v.3c-.1 5.2-.2 31.9 5.1 45.3 1 2.6 2.8 4.8 5.2 6.3 3 2 74.9 47.8 195.2 47.8s192.2-45.9 195.2-47.8c2.3-1.5 4.2-3.7 5.2-6.3 5-13.3 4.9-40 4.8-45.2z" /></symbol><symbol viewBox="0 0 32 32" id="vk"><g clip-path="url(#vk_clip0)"><path d="M31.83 23.36a2.194 2.194 0 00-.108-.209c-.555-1-1.616-2.227-3.182-3.682l-.033-.033-.017-.017-.017-.016h-.017c-.71-.678-1.16-1.133-1.349-1.367-.345-.444-.422-.894-.234-1.35.134-.344.634-1.07 1.5-2.182.455-.588.816-1.06 1.083-1.416 1.922-2.555 2.755-4.187 2.5-4.898l-.1-.166c-.067-.1-.239-.192-.516-.275-.278-.084-.634-.097-1.067-.042l-4.798.033c-.078-.027-.189-.025-.334.009l-.216.05-.084.041-.066.05a.74.74 0 00-.183.175c-.067.083-.122.18-.167.292a27.205 27.205 0 01-1.783 3.749 35.474 35.474 0 01-1.133 1.79c-.344.506-.633.878-.866 1.117-.233.239-.444.43-.633.575-.19.144-.333.205-.433.183-.1-.022-.194-.045-.284-.067-.155-.1-.28-.236-.374-.408a1.826 1.826 0 01-.192-.65 7.147 7.147 0 01-.058-.675c-.006-.188-.003-.455.008-.8.012-.344.017-.577.017-.7 0-.421.008-.88.025-1.374.016-.494.03-.886.041-1.174.012-.289.017-.595.017-.917 0-.322-.02-.574-.058-.758a2.597 2.597 0 00-.175-.533.897.897 0 00-.341-.4 1.925 1.925 0 00-.559-.225c-.588-.133-1.338-.205-2.249-.216-2.066-.022-3.393.11-3.982.4a2.245 2.245 0 00-.633.5c-.2.244-.228.377-.084.4.667.099 1.139.338 1.417.715l.1.2c.078.145.155.4.233.767.078.367.128.772.15 1.216.055.811.055 1.505 0 2.083a24.934 24.934 0 01-.158 1.35c-.05.321-.126.582-.225.782-.1.2-.167.322-.2.367a.285.285 0 01-.084.083 1.246 1.246 0 01-.45.083c-.155 0-.344-.077-.566-.233a4.004 4.004 0 01-.691-.641c-.24-.273-.509-.653-.809-1.142a19.91 19.91 0 01-.932-1.732l-.267-.484c-.167-.31-.394-.763-.683-1.357a26.178 26.178 0 01-.766-1.725 1.098 1.098 0 00-.4-.533l-.084-.05a1.14 1.14 0 00-.266-.142 1.768 1.768 0 00-.383-.108l-4.565.033c-.467 0-.784.106-.95.317l-.067.1a.539.539 0 00-.05.266c0 .123.033.273.1.45a54.987 54.987 0 002.174 4.532c.783 1.455 1.464 2.627 2.041 3.515a41.48 41.48 0 001.766 2.516c.6.789.997 1.294 1.191 1.516.195.223.348.389.459.5l.416.4c.267.266.658.586 1.175.958.516.372 1.088.739 1.716 1.1.628.36 1.358.655 2.191.883.833.227 1.644.319 2.433.275h1.915c.39-.034.683-.156.884-.367l.066-.083c.044-.067.086-.17.125-.308.039-.14.058-.292.058-.459a5.488 5.488 0 01.108-1.29c.083-.384.178-.672.284-.867.105-.194.225-.358.358-.491a1.45 1.45 0 01.284-.242c.055-.028.099-.047.132-.058.267-.089.58-.003.942.258.361.261.7.584 1.016.967.317.383.697.813 1.142 1.29.444.479.833.834 1.166 1.067l.333.2c.222.134.511.256.867.367.355.11.666.139.933.083l4.265-.066c.421 0 .75-.07.983-.209.233-.139.371-.292.416-.458.045-.167.047-.356.009-.567a2.095 2.095 0 00-.118-.441z" /></g><defs></defs></symbol><clipPath id="vk_clip0"><path d="M0 0h32v32H0z" /></clipPath><symbol viewBox="0 0 483.3 483.3" id="~envelope"><path d="M424.3 57.75H59.1c-32.6 0-59.1 26.5-59.1 59.1v249.6c0 32.6 26.5 59.1 59.1 59.1h365.1c32.6 0 59.1-26.5 59.1-59.1v-249.5c.1-32.6-26.4-59.2-59-59.2zm32.1 308.7c0 17.7-14.4 32.1-32.1 32.1H59.1c-17.7 0-32.1-14.4-32.1-32.1v-249.5c0-17.7 14.4-32.1 32.1-32.1h365.1c17.7 0 32.1 14.4 32.1 32.1v249.5h.1z" /><path d="M304.8 238.55l118.2-106c5.5-5 6-13.5 1-19.1-5-5.5-13.5-6-19.1-1l-163 146.3-31.8-28.4c-.1-.1-.2-.2-.2-.3-.7-.7-1.4-1.3-2.2-1.9L78.3 112.35c-5.6-5-14.1-4.5-19.1 1.1-5 5.6-4.5 14.1 1.1 19.1l119.6 106.9-119.1 111.5c-5.4 5.1-5.7 13.6-.6 19.1 2.7 2.8 6.3 4.3 9.9 4.3 3.3 0 6.6-1.2 9.2-3.6l120.9-113.1 32.8 29.3c2.6 2.3 5.8 3.4 9 3.4s6.5-1.2 9-3.5l33.7-30.2 120.2 114.2c2.6 2.5 6 3.7 9.3 3.7 3.6 0 7.1-1.4 9.8-4.2 5.1-5.4 4.9-14-.5-19.1l-118.7-112.7z" /></symbol></defs></svg>